<mxfile host="app.diagrams.net" modified="2023-06-15T16:06:35.612Z" agent="Mozilla/5.0 (Windows NT 10.0; Win64; x64) AppleWebKit/537.36 (KHTML, like Gecko) Chrome/114.0.0.0 Safari/537.36 Edg/114.0.1823.43" etag="a2GkDQBUvmyEX-7iNRLt" version="21.4.0" type="device" pages="2">
  <diagram name="exe_5" id="BZ_9RC4E_gbiQ5bSyX-N">
    <mxGraphModel dx="1434" dy="796" grid="1" gridSize="10" guides="1" tooltips="1" connect="1" arrows="1" fold="1" page="1" pageScale="1" pageWidth="827" pageHeight="1169" math="0" shadow="0">
      <root>
        <mxCell id="0" />
        <mxCell id="1" parent="0" />
        <mxCell id="dZQo-gb0gjGzfR5ecjlx-1" style="edgeStyle=orthogonalEdgeStyle;rounded=0;orthogonalLoop=1;jettySize=auto;html=1;entryX=0;entryY=0.5;entryDx=0;entryDy=0;exitX=0.5;exitY=0;exitDx=0;exitDy=0;fillColor=#dae8fc;strokeColor=#6c8ebf;" edge="1" parent="1" target="dZQo-gb0gjGzfR5ecjlx-8">
          <mxGeometry relative="1" as="geometry">
            <mxPoint x="201" y="320" as="sourcePoint" />
            <mxPoint x="278.03999999999996" y="249.03999999999996" as="targetPoint" />
            <Array as="points">
              <mxPoint x="201" y="240" />
            </Array>
          </mxGeometry>
        </mxCell>
        <mxCell id="dZQo-gb0gjGzfR5ecjlx-3" value="" style="ellipse;whiteSpace=wrap;html=1;aspect=fixed;" vertex="1" parent="1">
          <mxGeometry x="160" y="320" width="80" height="80" as="geometry" />
        </mxCell>
        <mxCell id="dZQo-gb0gjGzfR5ecjlx-5" value="" style="ellipse;whiteSpace=wrap;html=1;aspect=fixed;" vertex="1" parent="1">
          <mxGeometry x="400" y="320" width="80" height="80" as="geometry" />
        </mxCell>
        <mxCell id="dZQo-gb0gjGzfR5ecjlx-27" style="edgeStyle=orthogonalEdgeStyle;rounded=0;orthogonalLoop=1;jettySize=auto;html=1;entryX=0.5;entryY=0;entryDx=0;entryDy=0;fillColor=#dae8fc;strokeColor=#6c8ebf;" edge="1" parent="1" source="dZQo-gb0gjGzfR5ecjlx-6" target="dZQo-gb0gjGzfR5ecjlx-24">
          <mxGeometry relative="1" as="geometry" />
        </mxCell>
        <mxCell id="dZQo-gb0gjGzfR5ecjlx-6" value="" style="ellipse;whiteSpace=wrap;html=1;aspect=fixed;" vertex="1" parent="1">
          <mxGeometry x="280" y="440" width="80" height="80" as="geometry" />
        </mxCell>
        <mxCell id="dZQo-gb0gjGzfR5ecjlx-7" style="edgeStyle=orthogonalEdgeStyle;rounded=0;orthogonalLoop=1;jettySize=auto;html=1;exitX=1;exitY=0.5;exitDx=0;exitDy=0;entryX=0.5;entryY=0;entryDx=0;entryDy=0;fillColor=#dae8fc;strokeColor=#6c8ebf;startArrow=classic;startFill=1;" edge="1" parent="1" source="dZQo-gb0gjGzfR5ecjlx-8" target="dZQo-gb0gjGzfR5ecjlx-5">
          <mxGeometry relative="1" as="geometry">
            <Array as="points">
              <mxPoint x="440" y="240" />
            </Array>
          </mxGeometry>
        </mxCell>
        <mxCell id="dZQo-gb0gjGzfR5ecjlx-21" style="edgeStyle=orthogonalEdgeStyle;rounded=0;orthogonalLoop=1;jettySize=auto;html=1;entryX=0.5;entryY=0;entryDx=0;entryDy=0;fillColor=#dae8fc;strokeColor=#6c8ebf;startArrow=classic;startFill=1;" edge="1" parent="1" source="dZQo-gb0gjGzfR5ecjlx-8" target="dZQo-gb0gjGzfR5ecjlx-6">
          <mxGeometry relative="1" as="geometry" />
        </mxCell>
        <mxCell id="dZQo-gb0gjGzfR5ecjlx-8" value="" style="ellipse;whiteSpace=wrap;html=1;aspect=fixed;" vertex="1" parent="1">
          <mxGeometry x="280" y="200" width="80" height="80" as="geometry" />
        </mxCell>
        <mxCell id="dZQo-gb0gjGzfR5ecjlx-9" value="" style="ellipse;whiteSpace=wrap;html=1;aspect=fixed;" vertex="1" parent="1">
          <mxGeometry x="285" y="205" width="70" height="70" as="geometry" />
        </mxCell>
        <mxCell id="dZQo-gb0gjGzfR5ecjlx-10" value="" style="shape=flexArrow;endArrow=classic;html=1;rounded=0;" edge="1" parent="1">
          <mxGeometry width="50" height="50" relative="1" as="geometry">
            <mxPoint x="70" y="359.5" as="sourcePoint" />
            <mxPoint x="140" y="359.5" as="targetPoint" />
          </mxGeometry>
        </mxCell>
        <mxCell id="dZQo-gb0gjGzfR5ecjlx-11" value="0,1" style="text;html=1;strokeColor=none;fillColor=none;align=center;verticalAlign=middle;whiteSpace=wrap;rounded=0;rotation=0;" vertex="1" parent="1">
          <mxGeometry x="240" y="240" width="30" height="30" as="geometry" />
        </mxCell>
        <mxCell id="dZQo-gb0gjGzfR5ecjlx-17" value="0" style="text;html=1;strokeColor=none;fillColor=none;align=center;verticalAlign=middle;whiteSpace=wrap;rounded=0;rotation=0;" vertex="1" parent="1">
          <mxGeometry x="440" y="290" width="30" height="30" as="geometry" />
        </mxCell>
        <mxCell id="dZQo-gb0gjGzfR5ecjlx-18" value="0,1" style="text;html=1;strokeColor=none;fillColor=none;align=center;verticalAlign=middle;whiteSpace=wrap;rounded=0;rotation=0;" vertex="1" parent="1">
          <mxGeometry x="370" y="245" width="30" height="30" as="geometry" />
        </mxCell>
        <mxCell id="dZQo-gb0gjGzfR5ecjlx-22" value="1" style="text;html=1;strokeColor=none;fillColor=none;align=center;verticalAlign=middle;whiteSpace=wrap;rounded=0;rotation=0;" vertex="1" parent="1">
          <mxGeometry x="290" y="400" width="30" height="30" as="geometry" />
        </mxCell>
        <mxCell id="dZQo-gb0gjGzfR5ecjlx-23" value="1" style="text;html=1;strokeColor=none;fillColor=none;align=center;verticalAlign=middle;whiteSpace=wrap;rounded=0;rotation=0;" vertex="1" parent="1">
          <mxGeometry x="325" y="280" width="30" height="30" as="geometry" />
        </mxCell>
        <mxCell id="dZQo-gb0gjGzfR5ecjlx-24" value="" style="ellipse;whiteSpace=wrap;html=1;aspect=fixed;" vertex="1" parent="1">
          <mxGeometry x="280" y="610" width="80" height="80" as="geometry" />
        </mxCell>
        <mxCell id="dZQo-gb0gjGzfR5ecjlx-25" style="edgeStyle=orthogonalEdgeStyle;rounded=0;orthogonalLoop=1;jettySize=auto;html=1;entryX=1.013;entryY=0.625;entryDx=0;entryDy=0;entryPerimeter=0;exitX=0;exitY=0.6;exitDx=0;exitDy=0;exitPerimeter=0;fillColor=#f8cecc;strokeColor=#b85450;" edge="1" parent="1" source="dZQo-gb0gjGzfR5ecjlx-24" target="dZQo-gb0gjGzfR5ecjlx-24">
          <mxGeometry relative="1" as="geometry">
            <Array as="points">
              <mxPoint x="260" y="658" />
              <mxPoint x="260" y="730" />
              <mxPoint x="380" y="730" />
              <mxPoint x="380" y="660" />
            </Array>
          </mxGeometry>
        </mxCell>
        <mxCell id="dZQo-gb0gjGzfR5ecjlx-26" value="0,1" style="text;html=1;strokeColor=none;fillColor=none;align=center;verticalAlign=middle;whiteSpace=wrap;rounded=0;rotation=0;" vertex="1" parent="1">
          <mxGeometry x="290" y="730" width="60" height="30" as="geometry" />
        </mxCell>
        <mxCell id="dZQo-gb0gjGzfR5ecjlx-28" value="0" style="text;html=1;strokeColor=none;fillColor=none;align=center;verticalAlign=middle;whiteSpace=wrap;rounded=0;rotation=0;" vertex="1" parent="1">
          <mxGeometry x="320" y="580" width="30" height="30" as="geometry" />
        </mxCell>
      </root>
    </mxGraphModel>
  </diagram>
  <diagram id="QiJtTgSsYQP9UBQ9wlIi" name="exe_6">
    <mxGraphModel dx="1434" dy="796" grid="1" gridSize="10" guides="1" tooltips="1" connect="1" arrows="1" fold="1" page="1" pageScale="1" pageWidth="827" pageHeight="1169" math="0" shadow="0">
      <root>
        <mxCell id="0" />
        <mxCell id="1" parent="0" />
        <mxCell id="KBZYj_l2Ynvkx66O6Rcd-19" style="edgeStyle=orthogonalEdgeStyle;rounded=0;orthogonalLoop=1;jettySize=auto;html=1;entryX=0;entryY=0.5;entryDx=0;entryDy=0;exitX=0.5;exitY=0;exitDx=0;exitDy=0;fillColor=#dae8fc;strokeColor=#6c8ebf;" edge="1" parent="1" target="KBZYj_l2Ynvkx66O6Rcd-4">
          <mxGeometry relative="1" as="geometry">
            <mxPoint x="201" y="320" as="sourcePoint" />
            <mxPoint x="278.03999999999996" y="249.03999999999996" as="targetPoint" />
            <Array as="points">
              <mxPoint x="201" y="240" />
            </Array>
          </mxGeometry>
        </mxCell>
        <mxCell id="KBZYj_l2Ynvkx66O6Rcd-23" style="edgeStyle=orthogonalEdgeStyle;rounded=0;orthogonalLoop=1;jettySize=auto;html=1;exitX=0.5;exitY=1;exitDx=0;exitDy=0;entryX=0;entryY=0.5;entryDx=0;entryDy=0;fillColor=#dae8fc;strokeColor=#6c8ebf;" edge="1" parent="1" source="KBZYj_l2Ynvkx66O6Rcd-1" target="KBZYj_l2Ynvkx66O6Rcd-3">
          <mxGeometry relative="1" as="geometry" />
        </mxCell>
        <mxCell id="KBZYj_l2Ynvkx66O6Rcd-1" value="" style="ellipse;whiteSpace=wrap;html=1;aspect=fixed;" vertex="1" parent="1">
          <mxGeometry x="160" y="320" width="80" height="80" as="geometry" />
        </mxCell>
        <mxCell id="KBZYj_l2Ynvkx66O6Rcd-24" style="edgeStyle=orthogonalEdgeStyle;rounded=0;orthogonalLoop=1;jettySize=auto;html=1;entryX=1;entryY=0.5;entryDx=0;entryDy=0;exitX=0.5;exitY=1;exitDx=0;exitDy=0;fillColor=#dae8fc;strokeColor=#6c8ebf;" edge="1" parent="1" source="KBZYj_l2Ynvkx66O6Rcd-2" target="KBZYj_l2Ynvkx66O6Rcd-3">
          <mxGeometry relative="1" as="geometry" />
        </mxCell>
        <mxCell id="KBZYj_l2Ynvkx66O6Rcd-2" value="" style="ellipse;whiteSpace=wrap;html=1;aspect=fixed;" vertex="1" parent="1">
          <mxGeometry x="400" y="320" width="80" height="80" as="geometry" />
        </mxCell>
        <mxCell id="KBZYj_l2Ynvkx66O6Rcd-3" value="" style="ellipse;whiteSpace=wrap;html=1;aspect=fixed;" vertex="1" parent="1">
          <mxGeometry x="280" y="440" width="80" height="80" as="geometry" />
        </mxCell>
        <mxCell id="KBZYj_l2Ynvkx66O6Rcd-21" style="edgeStyle=orthogonalEdgeStyle;rounded=0;orthogonalLoop=1;jettySize=auto;html=1;exitX=1;exitY=0.5;exitDx=0;exitDy=0;entryX=0.5;entryY=0;entryDx=0;entryDy=0;fillColor=#dae8fc;strokeColor=#6c8ebf;startArrow=classic;startFill=1;" edge="1" parent="1" source="KBZYj_l2Ynvkx66O6Rcd-4" target="KBZYj_l2Ynvkx66O6Rcd-2">
          <mxGeometry relative="1" as="geometry">
            <Array as="points">
              <mxPoint x="440" y="240" />
            </Array>
          </mxGeometry>
        </mxCell>
        <mxCell id="KBZYj_l2Ynvkx66O6Rcd-4" value="" style="ellipse;whiteSpace=wrap;html=1;aspect=fixed;" vertex="1" parent="1">
          <mxGeometry x="280" y="200" width="80" height="80" as="geometry" />
        </mxCell>
        <mxCell id="KBZYj_l2Ynvkx66O6Rcd-9" value="" style="ellipse;whiteSpace=wrap;html=1;aspect=fixed;" vertex="1" parent="1">
          <mxGeometry x="285" y="205" width="70" height="70" as="geometry" />
        </mxCell>
        <mxCell id="KBZYj_l2Ynvkx66O6Rcd-10" value="" style="shape=flexArrow;endArrow=classic;html=1;rounded=0;" edge="1" parent="1">
          <mxGeometry width="50" height="50" relative="1" as="geometry">
            <mxPoint x="70" y="359.5" as="sourcePoint" />
            <mxPoint x="140" y="359.5" as="targetPoint" />
          </mxGeometry>
        </mxCell>
        <mxCell id="KBZYj_l2Ynvkx66O6Rcd-11" value="1" style="text;html=1;strokeColor=none;fillColor=none;align=center;verticalAlign=middle;whiteSpace=wrap;rounded=0;rotation=0;" vertex="1" parent="1">
          <mxGeometry x="250" y="240" width="20" height="30" as="geometry" />
        </mxCell>
        <mxCell id="KBZYj_l2Ynvkx66O6Rcd-14" style="edgeStyle=orthogonalEdgeStyle;rounded=0;orthogonalLoop=1;jettySize=auto;html=1;exitX=0.013;exitY=0.425;exitDx=0;exitDy=0;entryX=1;entryY=0.4;entryDx=0;entryDy=0;endArrow=none;endFill=0;startArrow=classic;startFill=1;fillColor=#f8cecc;strokeColor=#b85450;entryPerimeter=0;exitPerimeter=0;" edge="1" parent="1" source="KBZYj_l2Ynvkx66O6Rcd-4" target="KBZYj_l2Ynvkx66O6Rcd-4">
          <mxGeometry relative="1" as="geometry">
            <Array as="points">
              <mxPoint x="260" y="234" />
              <mxPoint x="260" y="160" />
              <mxPoint x="380" y="160" />
              <mxPoint x="380" y="234" />
              <mxPoint x="360" y="234" />
            </Array>
          </mxGeometry>
        </mxCell>
        <mxCell id="KBZYj_l2Ynvkx66O6Rcd-16" value="1" style="text;html=1;strokeColor=none;fillColor=none;align=center;verticalAlign=middle;whiteSpace=wrap;rounded=0;rotation=0;" vertex="1" parent="1">
          <mxGeometry x="307.5" y="130" width="25" height="30" as="geometry" />
        </mxCell>
        <mxCell id="KBZYj_l2Ynvkx66O6Rcd-25" style="edgeStyle=orthogonalEdgeStyle;rounded=0;orthogonalLoop=1;jettySize=auto;html=1;entryX=1.013;entryY=0.625;entryDx=0;entryDy=0;entryPerimeter=0;exitX=0;exitY=0.6;exitDx=0;exitDy=0;exitPerimeter=0;fillColor=#f8cecc;strokeColor=#b85450;" edge="1" parent="1" source="KBZYj_l2Ynvkx66O6Rcd-3" target="KBZYj_l2Ynvkx66O6Rcd-3">
          <mxGeometry relative="1" as="geometry">
            <Array as="points">
              <mxPoint x="260" y="488" />
              <mxPoint x="260" y="560" />
              <mxPoint x="380" y="560" />
              <mxPoint x="380" y="490" />
            </Array>
          </mxGeometry>
        </mxCell>
        <mxCell id="KBZYj_l2Ynvkx66O6Rcd-26" value="0,1" style="text;html=1;strokeColor=none;fillColor=none;align=center;verticalAlign=middle;whiteSpace=wrap;rounded=0;rotation=0;" vertex="1" parent="1">
          <mxGeometry x="290" y="560" width="60" height="30" as="geometry" />
        </mxCell>
        <mxCell id="KBZYj_l2Ynvkx66O6Rcd-27" value="0" style="text;html=1;strokeColor=none;fillColor=none;align=center;verticalAlign=middle;whiteSpace=wrap;rounded=0;rotation=0;" vertex="1" parent="1">
          <mxGeometry x="245" y="450" width="30" height="30" as="geometry" />
        </mxCell>
        <mxCell id="KBZYj_l2Ynvkx66O6Rcd-28" value="0" style="text;html=1;strokeColor=none;fillColor=none;align=center;verticalAlign=middle;whiteSpace=wrap;rounded=0;rotation=0;" vertex="1" parent="1">
          <mxGeometry x="440" y="290" width="30" height="30" as="geometry" />
        </mxCell>
        <mxCell id="KBZYj_l2Ynvkx66O6Rcd-29" value="1" style="text;html=1;strokeColor=none;fillColor=none;align=center;verticalAlign=middle;whiteSpace=wrap;rounded=0;rotation=0;" vertex="1" parent="1">
          <mxGeometry x="370" y="245" width="30" height="30" as="geometry" />
        </mxCell>
        <mxCell id="KBZYj_l2Ynvkx66O6Rcd-30" value="0" style="text;html=1;strokeColor=none;fillColor=none;align=center;verticalAlign=middle;whiteSpace=wrap;rounded=0;rotation=0;" vertex="1" parent="1">
          <mxGeometry x="370" y="450" width="30" height="30" as="geometry" />
        </mxCell>
      </root>
    </mxGraphModel>
  </diagram>
</mxfile>
